<svg width="89" height="34" viewBox="0 0 89 34" fill="none" xmlns="http://www.w3.org/2000/svg">
<path d="M39.5415 30.867V26.8589H42.5743V27.3321H40.0966V28.5586H42.4157V29.0295H40.0966V30.3938H42.6704V30.867H39.5415Z" fill="#0A172B"/>
<path d="M45.343 30.867V30.5018C45.255 30.6398 45.1298 30.7526 44.9806 30.8286C44.8314 30.9045 44.6636 30.9408 44.4947 30.9336C44.2561 30.9344 44.0227 30.8672 43.8242 30.7407C43.6141 30.6105 43.4473 30.4256 43.3436 30.2078C43.2278 29.9594 43.1712 29.6895 43.1778 29.4177C43.1728 29.148 43.2243 28.8802 43.3292 28.6298C43.418 28.4078 43.5767 28.2176 43.7834 28.0854C43.9851 27.9606 44.2207 27.8951 44.461 27.8971C44.624 27.8951 44.7852 27.9303 44.9311 27.9998C45.0769 28.0693 45.2033 28.1711 45.2998 28.2968V26.8589H45.8116V30.867H45.343ZM43.7161 29.4177C43.691 29.7139 43.7761 30.0092 43.9564 30.2514C44.025 30.3368 44.113 30.4061 44.2138 30.4542C44.3145 30.5024 44.4253 30.5281 44.538 30.5294C44.6481 30.53 44.7569 30.5065 44.856 30.4607C44.9552 30.415 45.042 30.3481 45.1099 30.2652C45.2875 30.0322 45.3727 29.7465 45.3502 29.459C45.3754 29.1498 45.2908 28.8414 45.1099 28.5839C45.0403 28.4968 44.9504 28.4263 44.8474 28.3781C44.7444 28.3298 44.631 28.3051 44.5163 28.3059C44.4056 28.3052 44.2962 28.3289 44.1966 28.3751C44.097 28.4213 44.0099 28.4888 43.942 28.5724C43.7701 28.8221 43.6905 29.1197 43.7161 29.4177Z" fill="#0A172B"/>
<path d="M48.625 30.867V30.4398C48.5225 30.5939 48.3803 30.7203 48.2119 30.8068C48.0436 30.8933 47.8548 30.937 47.6638 30.9336C47.4902 30.9342 47.3184 30.9006 47.1591 30.8349C47.0238 30.7823 46.9047 30.6978 46.813 30.5891C46.7339 30.4788 46.6807 30.3534 46.6568 30.2216C46.6314 30.0697 46.6209 29.9159 46.6256 29.7622V27.9637H47.1399V29.5716C47.1335 29.7451 47.144 29.9189 47.1711 30.0907C47.1982 30.214 47.2718 30.3235 47.3778 30.3985C47.4922 30.4733 47.6286 30.5111 47.7671 30.5064C47.92 30.5069 48.0703 30.4681 48.2021 30.3939C48.3307 30.3247 48.4314 30.2163 48.488 30.0861C48.5522 29.9027 48.5807 29.7096 48.5722 29.5164V27.9614H49.0888V30.8647L48.625 30.867Z" fill="#0A172B"/>
<path d="M51.8796 29.8034L52.3866 29.8654C52.3485 30.1682 52.1965 30.4474 51.9589 30.6509C51.7258 30.8415 51.4268 30.9423 51.1202 30.9334C50.9335 30.9404 50.7474 30.9094 50.5743 30.8425C50.4011 30.7755 50.2448 30.6742 50.1156 30.5453C49.845 30.2322 49.71 29.8319 49.7383 29.4267C49.7324 29.1439 49.7881 28.8631 49.9017 28.6021C49.9998 28.3783 50.1743 28.1928 50.3968 28.0761C50.617 27.958 50.8653 27.8963 51.1178 27.8969C51.4074 27.8813 51.6937 27.9625 51.9276 28.1266C52.1488 28.299 52.2931 28.5453 52.3313 28.8157L51.8315 28.8892C51.799 28.7203 51.7096 28.5662 51.5768 28.4505C51.4551 28.351 51.2994 28.2979 51.1394 28.3012C51.0197 28.2976 50.9006 28.3199 50.7912 28.3664C50.6818 28.413 50.5847 28.4825 50.5073 28.5699C50.3239 28.8142 50.2386 29.1134 50.267 29.4129C50.2419 29.7142 50.3268 30.0145 50.5073 30.2627C50.5814 30.3489 50.6752 30.4177 50.7814 30.4639C50.8876 30.5101 51.0035 30.5324 51.1202 30.5292C51.3071 30.5346 51.4889 30.4703 51.6272 30.35C51.7753 30.2014 51.8645 30.0081 51.8796 29.8034Z" fill="#0A172B"/>
<path d="M54.8095 30.5088C54.6466 30.6481 54.4596 30.7593 54.2567 30.8372C54.0756 30.9027 53.8833 30.9354 53.6896 30.9337C53.4122 30.9516 53.1379 30.8697 52.9206 30.704C52.8272 30.6203 52.7546 30.5177 52.7081 30.4037C52.6615 30.2898 52.6423 30.1673 52.6518 30.0452C52.6612 29.9232 52.6991 29.8048 52.7627 29.6986C52.8262 29.5924 52.9138 29.5011 53.0191 29.4315C53.1326 29.3592 53.2576 29.3049 53.3892 29.2707C53.5402 29.2359 53.6936 29.2113 53.8482 29.1972C54.1592 29.1688 54.4666 29.1118 54.7662 29.0272C54.7662 28.9583 54.7662 28.917 54.7662 28.8986C54.7747 28.8221 54.7662 28.7447 54.7414 28.6715C54.7165 28.5983 54.6759 28.5309 54.622 28.4737C54.4531 28.3524 54.244 28.2937 54.0332 28.3083C53.8457 28.2943 53.6582 28.3369 53.4973 28.43C53.3631 28.5409 53.2732 28.6926 53.2426 28.8596L52.7379 28.7953C52.7713 28.6145 52.8487 28.4438 52.9638 28.2968C53.0832 28.1599 53.2407 28.058 53.418 28.0028C53.64 27.9305 53.8733 27.8956 54.1077 27.8995C54.3229 27.8934 54.5375 27.9229 54.7422 27.9867C54.8798 28.032 55.0025 28.1113 55.0978 28.2164C55.1792 28.3132 55.2345 28.4275 55.2589 28.5495C55.281 28.7017 55.2898 28.8553 55.2853 29.0089V29.6635C55.2773 29.954 55.2877 30.2447 55.3165 30.534C55.3407 30.6557 55.3854 30.7728 55.4487 30.8809H54.9128C54.8541 30.7642 54.819 30.6379 54.8095 30.5088ZM54.7662 29.4108C54.4937 29.5018 54.2117 29.5641 53.9251 29.5969C53.7717 29.6114 53.6208 29.6438 53.4757 29.6934C53.3926 29.7268 53.3222 29.7837 53.2738 29.8564C53.2261 29.9243 53.2009 30.0044 53.2017 30.0861C53.2003 30.1483 53.2134 30.2101 53.24 30.2669C53.2666 30.3237 53.3061 30.3741 53.3555 30.4146C53.4869 30.51 53.65 30.5565 53.8146 30.5455C53.9991 30.5487 54.1812 30.5059 54.3433 30.4215C54.4913 30.3438 54.6105 30.2243 54.6845 30.0792C54.7479 29.9228 54.7757 29.7552 54.7662 29.5877V29.4108Z" fill="#0A172B"/>
<path d="M57.2119 30.426L57.2864 30.8624C57.1586 30.8901 57.0281 30.9048 56.8971 30.9061C56.7513 30.9136 56.6058 30.886 56.4741 30.8257C56.3765 30.7753 56.3 30.6941 56.2579 30.596C56.2028 30.407 56.1817 30.2106 56.1954 30.0149V28.345H55.8157V27.9637H56.1954V27.2425L56.7072 26.9485V27.9637H57.2239V28.345H56.7072V30.0447C56.7015 30.1357 56.7096 30.227 56.7313 30.3158C56.7511 30.3545 56.7819 30.3872 56.8202 30.4099C56.8748 30.4376 56.9363 30.4503 56.998 30.4467C57.0697 30.4445 57.1412 30.4376 57.2119 30.426Z" fill="#0A172B"/>
<path d="M57.7214 27.4239V26.8589H58.2357V27.4239H57.7214ZM57.7214 30.8693V27.9637H58.2357V30.867L57.7214 30.8693Z" fill="#0A172B"/>
<path d="M58.8323 29.4153C58.8323 28.8779 58.9885 28.4782 59.3009 28.2209C59.5682 28.0026 59.9108 27.8872 60.2622 27.8971C60.4521 27.892 60.6409 27.9251 60.8164 27.9944C60.992 28.0636 61.1503 28.1674 61.2811 28.299C61.4198 28.4448 61.5265 28.6156 61.595 28.8014C61.6635 28.9872 61.6924 29.1842 61.6801 29.3809C61.6947 29.6849 61.6338 29.988 61.5022 30.2652C61.3895 30.4772 61.2106 30.6506 60.9904 30.7613C60.77 30.8789 60.5218 30.9406 60.2694 30.9405C60.078 30.9477 59.8872 30.9165 59.7092 30.8488C59.5312 30.7812 59.37 30.6786 59.2361 30.5477C59.0941 30.3936 58.9854 30.2143 58.9161 30.02C58.8468 29.8257 58.8183 29.6202 58.8323 29.4153ZM59.361 29.4153C59.3381 29.7142 59.4285 30.011 59.6158 30.2514C59.6954 30.339 59.7938 30.4093 59.9043 30.4574C60.0147 30.5056 60.1348 30.5305 60.2562 30.5305C60.3776 30.5305 60.4976 30.5056 60.6081 30.4574C60.7186 30.4093 60.817 30.339 60.8966 30.2514C61.0851 30.0063 61.1755 29.7048 61.1514 29.4016C61.1739 29.1084 61.0814 28.8177 60.8918 28.5861C60.8148 28.4972 60.7177 28.426 60.6079 28.3778C60.498 28.3297 60.3782 28.3059 60.2574 28.3082C60.1358 28.3059 60.0151 28.3294 59.9042 28.3771C59.7932 28.4248 59.6947 28.4954 59.6158 28.5838C59.428 28.8223 59.3367 29.1176 59.3586 29.4153H59.361Z" fill="#0A172B"/>
<path d="M62.2854 30.8671V27.9638H62.7492V28.3749C62.8525 28.2227 62.9954 28.0986 63.1639 28.0149C63.3324 27.9311 63.5207 27.8906 63.7105 27.8972C63.8831 27.8952 64.0543 27.928 64.2127 27.9936C64.3499 28.0429 64.4699 28.1281 64.5588 28.2394C64.6386 28.3482 64.6935 28.4719 64.7198 28.6023C64.7438 28.7613 64.7534 28.9219 64.7486 29.0824V30.8671H64.2344V29.1008C64.2429 28.9453 64.2217 28.7896 64.1719 28.6414C64.1303 28.5436 64.0548 28.4625 63.958 28.4117C63.85 28.35 63.7258 28.3189 63.5999 28.3221C63.3907 28.3187 63.1876 28.3899 63.0304 28.5219C62.8718 28.6552 62.7901 28.9078 62.7901 29.2799V30.8648L62.2854 30.8671Z" fill="#0A172B"/>
<path d="M69.1611 29.8035L69.6681 29.8655C69.6309 30.1681 69.4797 30.4473 69.2428 30.6511C69.0095 30.8413 68.7106 30.942 68.4041 30.9336C68.2174 30.9405 68.0314 30.9095 67.8582 30.8426C67.685 30.7757 67.5287 30.6744 67.3996 30.5454C67.1289 30.2323 66.9939 29.8321 67.0223 29.4268C67.0151 29.144 67.0708 28.863 67.1857 28.6022C67.2837 28.3784 67.4582 28.193 67.6807 28.0762C67.9005 27.9572 68.1491 27.8954 68.4017 27.8971C68.6913 27.8818 68.9775 27.963 69.2115 28.1268C69.4311 28.3005 69.575 28.5462 69.6153 28.8158L69.1154 28.8893C69.082 28.7208 68.9927 28.5669 68.8607 28.4506C68.7384 28.3506 68.5818 28.2975 68.4209 28.3013C68.3012 28.2979 68.1822 28.3203 68.0728 28.3668C67.9634 28.4133 67.8664 28.4828 67.7889 28.5701C67.6066 28.8149 67.5214 29.1137 67.5486 29.413C67.5234 29.7144 67.6084 30.0147 67.7889 30.2629C67.8627 30.3488 67.9561 30.4174 68.0618 30.4636C68.1676 30.5098 68.283 30.5322 68.3993 30.5293C68.5862 30.5347 68.768 30.4705 68.9063 30.3502C69.0562 30.2025 69.1464 30.0088 69.1611 29.8035Z" fill="#0A172B"/>
<path d="M69.9171 29.4156C69.9171 28.8781 70.0733 28.4785 70.3857 28.2212C70.6527 28.0025 70.9955 27.887 71.347 27.8973C71.5371 27.8907 71.7265 27.9225 71.9029 27.9905C72.0793 28.0586 72.2387 28.1615 72.3707 28.2924C72.5089 28.4385 72.6153 28.6094 72.6838 28.7951C72.7523 28.9808 72.7815 29.1777 72.7697 29.3743C72.7843 29.6783 72.7233 29.9814 72.5918 30.2586C72.4771 30.4692 72.2987 30.6421 72.08 30.7547C71.856 30.8742 71.6034 30.9359 71.347 30.9339C71.1556 30.9412 70.9647 30.9101 70.7866 30.8424C70.6086 30.7748 70.4475 30.6721 70.3136 30.5411C70.0313 30.2306 69.8888 29.8261 69.9171 29.4156ZM70.4458 29.4156C70.4218 29.7146 70.5123 30.0118 70.7005 30.2517C70.7794 30.3405 70.8778 30.4114 70.9887 30.4595C71.0997 30.5075 71.2204 30.5315 71.3422 30.5296C71.4635 30.5315 71.5837 30.5073 71.694 30.4588C71.8042 30.4103 71.9016 30.3387 71.979 30.2494C72.1686 30.0049 72.2591 29.7029 72.2338 29.3995C72.2572 29.1066 72.1655 28.8159 71.9766 28.5841C71.8992 28.4955 71.8021 28.4246 71.6923 28.3765C71.5826 28.3284 71.4629 28.3044 71.3422 28.3062C71.2206 28.3039 71.0999 28.3274 70.9889 28.3751C70.878 28.4227 70.7795 28.4934 70.7005 28.5818C70.5119 28.8207 70.4212 29.1173 70.4458 29.4156Z" fill="#0A172B"/>
<path d="M73.3706 30.8669V27.9636H73.832V28.3702C73.9306 28.2229 74.0669 28.1022 74.228 28.0194C74.389 27.9366 74.5696 27.8945 74.7524 27.897C74.9462 27.89 75.138 27.9362 75.3052 28.0302C75.449 28.1187 75.5567 28.2517 75.6104 28.4069C75.7072 28.2513 75.8447 28.1224 76.0095 28.033C76.1742 27.9436 76.3605 27.8967 76.55 27.897C76.6761 27.8875 76.8028 27.903 76.9224 27.9425C77.0419 27.982 77.1515 28.0448 77.2445 28.1267C77.4227 28.3319 77.5091 28.596 77.4848 28.8617V30.8554H76.9729V29.0179C76.9803 28.8746 76.9633 28.7311 76.9225 28.593C76.8888 28.5053 76.8253 28.4309 76.7422 28.3817C76.6488 28.328 76.5412 28.3009 76.4322 28.3036C76.3338 28.3012 76.2359 28.3181 76.1445 28.3532C76.0532 28.3884 75.9704 28.441 75.9011 28.508C75.8223 28.5979 75.7629 28.7018 75.7262 28.8138C75.6895 28.9257 75.6762 29.0435 75.6873 29.1603V30.8462H75.173V28.988C75.1861 28.815 75.1424 28.6424 75.048 28.4942C74.9981 28.437 74.9344 28.3923 74.8624 28.3639C74.7904 28.3355 74.7122 28.3243 74.6347 28.3311C74.4923 28.331 74.3526 28.3684 74.2309 28.4391C74.1082 28.5155 74.0153 28.6286 73.9666 28.7606C73.9024 28.9567 73.874 29.1618 73.8825 29.367V30.8738L73.3706 30.8669Z" fill="#0A172B"/>
<path d="M78.252 31.974V27.9636H78.7326V28.3403C78.8293 28.2048 78.9566 28.0917 79.1051 28.0095C79.261 27.9305 79.4358 27.8917 79.6121 27.897C79.8561 27.893 80.0956 27.9595 80.2995 28.0876C80.5019 28.222 80.6583 28.4106 80.7488 28.6297C80.8518 28.8717 80.9032 29.131 80.9002 29.3923C80.9055 29.6687 80.8481 29.9429 80.732 30.1962C80.6353 30.4132 80.4744 30.5986 80.2691 30.7295C80.0637 30.8605 79.8229 30.9314 79.5761 30.9335C79.4147 30.9361 79.2552 30.8997 79.1123 30.8278C78.983 30.7638 78.8693 30.6746 78.7782 30.566V31.974H78.252ZM78.7182 29.4244C78.6943 29.7192 78.7793 30.0126 78.9585 30.2536C79.0261 30.3376 79.1132 30.4056 79.2128 30.4522C79.3124 30.4988 79.4219 30.5228 79.5328 30.5223C79.6466 30.5219 79.7588 30.4967 79.8609 30.4485C79.9629 30.4003 80.0521 30.3305 80.1216 30.2444C80.3037 29.9926 80.3887 29.6881 80.3619 29.3831C80.3856 29.0876 80.3006 28.7935 80.1216 28.5516C80.0552 28.4669 79.9693 28.398 79.8705 28.3502C79.7717 28.3024 79.6628 28.277 79.5521 28.276C79.4375 28.2792 79.3252 28.3077 79.2239 28.359C79.1227 28.4104 79.0351 28.4834 78.9681 28.5723C78.7822 28.8218 78.6938 29.1258 78.7182 29.4313V29.4244Z" fill="#0A172B"/>
<path d="M81.5029 30.867V26.8589H82.0172V30.867H81.5029Z" fill="#0A172B"/>
<path d="M84.8986 29.9322L85.4321 29.9942C85.3622 30.2681 85.1969 30.5111 84.9635 30.6833C84.6709 30.8649 84.3238 30.949 83.9761 30.9224C83.6283 30.8958 83.2996 30.76 83.041 30.5363C82.7656 30.2324 82.6258 29.8374 82.6516 29.4361C82.6217 29.0188 82.7631 28.6069 83.0458 28.2876C83.1768 28.1542 83.3361 28.0492 83.5131 27.9795C83.6901 27.9097 83.8806 27.877 84.0719 27.8834C84.2601 27.8792 84.447 27.9142 84.6197 27.986C84.7923 28.0578 84.9465 28.1646 85.0716 28.2991C85.3463 28.6096 85.4849 29.0095 85.4585 29.4154C85.4585 29.443 85.4585 29.4866 85.4585 29.5463H83.1948C83.1928 29.815 83.2926 30.0753 83.4759 30.279C83.5573 30.3619 83.6562 30.4275 83.7659 30.4714C83.8756 30.5154 83.9938 30.5367 84.1128 30.534C84.2849 30.5375 84.4535 30.4875 84.5934 30.3916C84.7401 30.2704 84.8462 30.1106 84.8986 29.9322ZM83.2164 29.1375H84.913C84.909 28.9389 84.8411 28.7464 84.7184 28.5862C84.6424 28.495 84.5454 28.4218 84.4349 28.3724C84.3244 28.323 84.2035 28.2987 84.0815 28.3014C83.9708 28.2994 83.8607 28.3187 83.7579 28.3582C83.6551 28.3976 83.5617 28.4564 83.4831 28.5311C83.3155 28.6934 83.2169 28.9096 83.2068 29.1375H83.2164Z" fill="#0A172B"/>
<path d="M85.7378 30.8669L86.8481 29.3579L85.8195 27.9636H86.4636L86.9298 28.6527C87.0187 28.7836 87.0884 28.8824 87.1436 28.9789C87.2254 28.8594 87.3047 28.7492 87.384 28.6573L87.8958 27.9682H88.511L87.4609 29.3464L88.5928 30.883H87.9559L87.3335 29.9803L87.1677 29.7368L86.3698 30.8853L85.7378 30.8669Z" fill="#0A172B"/>
<path d="M31.4981 25.1133V7.90942L15.7478 16.4379V33.7497L31.4981 25.1133Z" fill="#F0CC0D"/>
<path d="M15.8201 0L0 7.90932L15.7479 16.4378L31.4983 7.90932L15.8201 0Z" fill="#FFEB3C"/>
<path d="M0 25.258V7.90942L15.7479 16.435V34.0001L0 25.258Z" fill="#FFE600"/>
<path d="M43.5862 23.2459H40.8394V5.69287H43.5862V23.2459ZM58.2623 8.01506H55.2367V23.2459H52.5019V8.01506H49.4739V5.69287H58.2623V8.01506Z" fill="#2967C4"/>
<path d="M71.7318 23.2459H64.1162V5.69287H71.6622V8.01506H66.8558V13.1395H70.9869V15.4157H66.863V20.9283H71.7318V23.2459ZM87.1121 21.6381C87.1121 22.71 86.5513 23.2459 85.4299 23.2459H79.6983C78.6121 23.2459 78.0682 22.71 78.0666 21.6381V7.3099C78.0666 6.23801 78.6105 5.70206 79.6983 5.70206H85.4251C86.5465 5.70206 87.1073 6.23801 87.1073 7.3099V11.4145H84.3677V7.94845H80.8134V20.9926H84.3677V17.3015H87.1025L87.1121 21.6381Z" fill="#001C47"/>
</svg>
