<svg width="214" height="161" viewBox="0 0 214 161" fill="none" xmlns="http://www.w3.org/2000/svg">
<g filter="url(#filter0_d)">
<path d="M21.8266 100.25C41.4377 111.628 84.9374 136.752 97.2698 143.876C98.2742 144.461 99.416 144.77 100.579 144.77C101.741 144.77 102.883 144.461 103.887 143.876L203.754 85.169C204.75 84.5847 205.574 83.7482 206.144 82.7438C206.714 81.7394 207.009 80.6025 207 79.4477C206.991 78.2929 206.677 77.1609 206.091 76.1658C205.505 75.1707 204.667 74.3477 203.662 73.7795L127.511 30.6593C126.509 30.0914 125.374 29.7973 124.222 29.8064C123.069 29.8154 121.939 30.1274 120.946 30.711L21.7978 88.8889C20.8053 89.4696 19.9825 90.3006 19.4117 91.2988C18.8409 92.297 18.542 93.4276 18.5449 94.5775C18.5479 95.7274 18.8525 96.8564 19.4283 97.8518C20.0042 98.8471 20.8311 99.6739 21.8266 100.25Z" fill="#FFD15B"/>
<path d="M89.9499 127.697L139.923 100.577L144.707 96.2649L146.202 93.189L144.684 77.3322C144.684 77.3322 143.534 74.584 142.039 74.0838C140.544 73.5836 64.7734 113.139 64.7734 113.139L89.9499 127.697Z" fill="url(#paint0_linear)"/>
<path d="M128.57 33.8325C129.254 34.166 129.978 34.5109 130.726 34.7927C132.031 34.8293 133.338 34.7967 134.641 34.6949C135.18 34.5635 135.738 34.5208 136.291 34.5684C136.396 34.5688 136.499 34.593 136.593 34.6391C136.686 34.6852 136.769 34.752 136.833 34.8345C136.897 34.917 136.942 35.0131 136.963 35.1154C136.985 35.2177 136.983 35.3236 136.958 35.4251C136.871 35.6736 136.718 35.8938 136.515 36.062C136.313 36.2301 136.068 36.3399 135.808 36.3795C135.383 36.4887 134.946 36.5807 134.514 36.6727C135.756 37.2675 137.04 37.771 138.355 38.179C139.183 38.455 138.844 39.7831 138.004 39.5014L137.107 39.1967C137.605 39.4864 138.087 39.8031 138.55 40.1453C139.125 40.565 138.844 41.6747 138.039 41.4044C136.956 41.0376 135.902 40.5878 134.888 40.0591C135.517 40.5037 136.159 40.9311 136.814 41.3412C137.562 41.8069 136.889 42.997 136.136 42.5313C135.216 41.9602 134.319 41.3527 133.445 40.7088C133.652 41.0882 133.859 41.4734 134.049 41.8586C134.44 42.6463 133.267 43.3535 132.899 42.5601C132.531 41.7666 132.117 41.0652 131.686 40.3465L131.599 40.3121C129.415 39.2772 127.253 38.2001 125.114 37.0809C124.332 36.6727 125.011 35.4826 125.793 35.8908L126.782 36.4025C126.802 36.2971 126.844 36.197 126.904 36.108C126.964 36.0191 127.042 35.9433 127.132 35.885C127.064 35.7856 127.023 35.6698 127.014 35.5496C127.005 35.4293 127.028 35.3088 127.081 35.2002C127.133 35.0917 127.214 34.9989 127.313 34.9314C127.413 34.8638 127.529 34.8239 127.65 34.8157C127.581 34.6846 127.555 34.5355 127.574 34.3888C127.594 34.2422 127.659 34.1054 127.76 33.9973C127.861 33.8893 127.994 33.8154 128.139 33.7858C128.284 33.7563 128.434 33.7726 128.57 33.8325Z" fill="#FFC285"/>
<path d="M134.171 37.386C133.395 38.2024 132.446 39.0131 131.25 38.7716C131.009 38.7256 131.072 38.3404 131.313 38.3922C132.377 38.6049 133.188 37.8517 133.866 37.1388C134.039 36.9606 134.343 37.2078 134.171 37.386Z" fill="#6D320B"/>
<path d="M134.986 38.2196C136.019 38.6326 137.075 38.9858 138.149 39.2775C138.327 39.3235 138.281 39.6109 138.103 39.5649C137.006 39.2688 135.927 38.9098 134.871 38.4898C134.693 38.4093 134.797 38.1506 134.986 38.2196Z" fill="#6D320B"/>
<path d="M134.348 39.5763C135.522 40.2892 136.787 40.8422 138.108 41.2206C138.286 41.2723 138.24 41.554 138.062 41.508C136.717 41.127 135.43 40.5682 134.233 39.8465C134.072 39.7487 134.187 39.4843 134.348 39.5763Z" fill="#6D320B"/>
<path d="M132.922 40.3068C133.819 40.9925 134.782 41.5876 135.796 42.0834C135.963 42.1638 135.842 42.4283 135.676 42.3478C134.645 41.8398 133.666 41.2312 132.755 40.531C132.594 40.416 132.778 40.1918 132.922 40.3068Z" fill="#6D320B"/>
<path d="M133.548 25.6458C134.031 24.3522 134.462 23.0413 134.894 21.7132C135.594 19.8396 136.084 17.894 136.354 15.9121C136.009 14.9865 134.767 14.2793 133.893 14.0723C132.795 13.8078 131.668 14.2793 130.553 14.2563C129.098 14.2563 127.948 13.6814 126.592 13.2674C125.187 12.9147 123.709 12.9826 122.343 13.4629C119.721 14.2735 117.048 13.9918 114.869 12.2613C113.632 11.2781 112.667 10.4732 111.103 10.065C108.688 9.42683 106.199 9.88103 104.606 11.9106C103.174 13.7446 102.881 16.1478 104.382 18.0221C105.197 18.8893 106.262 19.482 107.429 19.7182C108.492 20.0229 109.487 20.6496 110.58 20.8681H110.7C111.733 20.9406 112.761 21.0788 113.776 21.282C115.058 21.6615 116.248 22.2997 117.508 22.7539C119.181 23.3288 120.802 23.1218 122.521 22.9033C124.711 22.6274 125.873 23.3058 127.569 24.5534L127.874 24.7661C129.072 25.4916 130.452 25.8587 131.852 25.824C132.422 25.8147 132.989 25.7551 133.548 25.6458Z" fill="#653200"/>
<path d="M132.802 70.784C132.802 70.784 138.983 70.5713 139.977 72.2098C140.972 73.8484 141.674 78.4996 143.266 78.7296C144.859 78.9596 145.319 75.0155 145.537 72.3018C145.756 69.5881 145.273 68.2773 144.686 68.1795C144.1 68.0818 139.661 66.4202 139.472 65.6268C139.282 64.8334 144.876 65.713 144.876 65.713L144.634 62.9648L131.348 63.6778L132.802 70.784Z" fill="#F77819"/>
<path d="M115.306 74.0897L137.015 74.0495C137.015 74.0495 135.785 65.7531 132.703 61.6711L116.973 59.6646" fill="#F28830"/>
<path d="M133.837 91.0044C133.837 91.0044 136.51 93.9941 135.648 95.9431C134.786 97.8922 130.98 101.514 131.79 103.118C132.601 104.722 136.499 102.624 139.121 101.083C141.742 99.5422 142.645 98.2601 142.346 97.668C142.047 97.0758 140.742 91.9186 141.346 91.2689C141.949 90.6192 144.726 96.2651 144.726 96.2651L146.221 93.1892L137.936 82.6104L133.837 91.0044Z" fill="#F77819"/>
<path d="M92.3842 9.92698C92.0048 9.27155 91.6138 8.56438 91.2804 7.83996C91.1594 6.53851 91.1076 5.23157 91.1251 3.92464C91.215 3.37636 91.215 2.8171 91.1251 2.26882C91.1181 2.16401 91.0872 2.06219 91.0348 1.97113C90.9824 1.88007 90.9099 1.80218 90.8228 1.74339C90.7358 1.68461 90.6364 1.64648 90.5324 1.63192C90.4283 1.61737 90.3224 1.62676 90.2225 1.65939C89.9881 1.76569 89.7863 1.93251 89.6377 2.14269C89.4892 2.35287 89.3993 2.59882 89.3773 2.85526C89.2968 3.28646 89.2336 3.72916 89.1704 4.16611C88.5058 2.96575 87.9293 1.71869 87.4455 0.434776C87.1121 -0.375885 85.8127 0.0495673 86.1462 0.871727L86.5084 1.74563C86.1869 1.26706 85.8395 0.806421 85.4678 0.365782C85.0136 -0.168909 83.9212 0.176053 84.2489 0.940718C84.685 1.99852 85.2021 3.02111 85.7955 3.99938C85.3087 3.40145 84.8411 2.78818 84.3926 2.15959C83.8809 1.44666 82.7368 2.19408 83.2428 2.91275C83.8752 3.79432 84.5402 4.64906 85.2378 5.47697C84.8468 5.29299 84.4501 5.11476 84.0477 4.94803C83.237 4.60881 82.6103 5.82768 83.421 6.16689C84.2316 6.5061 84.9618 6.85107 85.7207 7.23053L85.761 7.31676C86.9109 9.4402 88.1163 11.5253 89.3773 13.5721C89.8373 14.3252 90.9814 13.5721 90.5272 12.8189L89.9523 11.8645C90.0564 11.8369 90.1539 11.7886 90.2388 11.7224C90.3238 11.6562 90.3945 11.5735 90.4467 11.4793C90.5497 11.5408 90.6669 11.5741 90.7868 11.576C90.9067 11.5779 91.025 11.5482 91.1298 11.49C91.2346 11.4318 91.3223 11.347 91.384 11.2442C91.4458 11.1415 91.4794 11.0243 91.4816 10.9044C91.6155 10.9575 91.7623 10.9688 91.9027 10.9369C92.0431 10.9049 92.1706 10.8312 92.2683 10.7254C92.366 10.6196 92.4294 10.4867 92.4501 10.3442C92.4708 10.2016 92.4478 10.0562 92.3842 9.92698Z" fill="#FFC285"/>
<path d="M88.474 4.57389C87.7151 5.4018 86.9619 6.38494 87.2781 7.57506C87.3414 7.81654 87.7151 7.72455 87.6518 7.48307C87.3701 6.43669 88.0658 5.57428 88.7327 4.84986C88.9052 4.67163 88.6407 4.37266 88.474 4.57389Z" fill="#6D320B"/>
<path d="M87.5895 3.79752C87.1111 2.79528 86.6907 1.76636 86.3304 0.715856C86.2729 0.543375 85.9912 0.606618 86.0487 0.784848C86.417 1.86083 86.847 2.91471 87.3366 3.94125C87.4171 4.11373 87.6528 3.97575 87.5895 3.79752Z" fill="#6D320B"/>
<path d="M86.2724 4.53924C85.4867 3.42247 84.8526 2.20641 84.3866 0.922888C84.3234 0.750407 84.0416 0.813649 84.1049 0.99188C84.573 2.30935 85.2149 3.55842 86.0137 4.70598C86.1229 4.82671 86.3816 4.69448 86.2724 4.53924Z" fill="#6D320B"/>
<path d="M85.6405 6.00563C84.8985 5.16013 84.2418 4.24346 83.68 3.26893C83.588 3.10795 83.3292 3.26893 83.427 3.40692C84.0023 4.40205 84.6744 5.33798 85.4335 6.20111C85.5542 6.34484 85.7612 6.14937 85.6405 6.00563Z" fill="#6D320B"/>
<path d="M99.0874 32.9702C99.0874 32.9702 91.9524 54.996 93.1081 65.0344C94.2637 75.0728 113.392 73.9805 113.392 73.9805L128.812 93.9538C134.699 93.0551 140.015 89.9285 143.662 85.2205C143.662 85.2205 138.718 78.2695 135.211 74.7566C131.704 71.2438 122.188 58.9056 121.792 55.1628C121.395 51.4199 117.054 37.3972 112.656 35.0917" fill="#F99943"/>
<path d="M111.184 18.4993L106.51 17.5679C102.558 17.4107 98.8173 15.7439 96.0577 12.9109C94.4175 11.2183 92.9818 9.33877 91.7802 7.31104C90.3631 8.15108 89.1009 9.22848 88.0489 10.4962C87.4916 11.1295 86.9806 11.802 86.5195 12.5085C88.5548 16.74 92.4414 22.8573 98.6737 25.2261C98.6737 25.2261 98.8979 27.5603 99.0819 32.9705C100.978 34.7324 103.329 35.9273 105.87 36.4192C108.411 36.9111 111.039 36.6804 113.455 35.7532C113.455 35.7532 112.765 20.7933 111.184 18.4993Z" fill="#021E6A"/>
<path d="M110.076 18.3496C110.076 18.3496 119.166 29.9231 131.808 33.8154C131.808 33.8154 130.975 38.4839 129.008 40.2547C129.008 40.2547 111.864 32.4873 107.914 25.5536" fill="#021E6A"/>
<path d="M104.72 14.1061C104.72 14.1061 103.07 18.8839 106.118 21.0456C109.165 23.2074 113.299 18.6884 112.166 14.4339C111.033 10.1793 106.658 10.0126 104.72 14.1061Z" fill="#FFC285"/>
<path d="M112.569 20.38C112.319 20.4346 112.059 20.4247 111.814 20.3513C111.568 20.2779 111.346 20.1433 111.167 19.9603C110.718 19.5061 110.758 18.8622 110.753 18.27C110.772 17.8856 110.69 17.5029 110.516 17.1599C110.341 16.817 110.08 16.5257 109.758 16.3152C108.959 15.7748 107.953 15.6195 107.228 14.9583C107.153 14.8894 107.079 14.8146 107.015 14.7399C107.111 14.8285 107.215 14.9074 107.326 14.9756C108.476 15.6885 110.252 15.861 110.776 16.1255C111.299 16.3899 110.448 18.5804 111.431 19.5348C112.414 20.4892 114.737 14.5099 113.392 12.8828C112.046 11.2557 107.608 9.35271 105.682 12.0549C105.734 12.2959 105.799 12.5338 105.877 12.7678C105.924 13.4987 106.195 14.1974 106.653 14.7686C107.372 15.6598 108.413 15.861 109.361 16.4072C109.667 16.5567 109.927 16.7845 110.116 17.0672C110.305 17.35 110.415 17.6777 110.436 18.017C110.396 18.5771 110.456 19.1398 110.615 19.6786C110.792 20.0452 111.089 20.3402 111.458 20.5148C111.826 20.6894 112.242 20.7331 112.638 20.6387C112.84 20.6157 112.748 20.3397 112.569 20.38Z" fill="#653200"/>
<path d="M113.851 74.1527C110.214 68.6635 107.323 62.7143 105.256 56.4619C104.666 54.6719 104.147 52.8628 103.698 51.0345C103.665 50.898 103.58 50.7802 103.46 50.7069C103.34 50.6335 103.196 50.6108 103.06 50.6435C102.923 50.6763 102.806 50.762 102.732 50.8817C102.659 51.0013 102.636 51.1453 102.669 51.2817C104.273 57.7632 106.732 64.0024 109.982 69.8349C110.898 71.4793 111.878 73.0872 112.92 74.6587C113.294 75.2221 114.231 74.7277 113.851 74.1527Z" fill="#F77819"/>
<path d="M41.0546 47.8957L40.6579 105.809L35.8975 108.402V46.9873L41.0546 47.8957Z" fill="#021E6A"/>
<path d="M28.7432 20.8679L34.8432 17.4355L55.7882 50.9774L50.4873 54.657" fill="#021E6A"/>
<g opacity="0.5">
<path opacity="0.5" d="M41.0546 47.8962L40.6579 105.81L35.8975 108.403V46.9878L41.0546 47.8962Z" fill="#647CCF"/>
<path opacity="0.5" d="M28.7432 20.8679L34.8432 17.4355L55.7882 50.9774L50.4873 54.657" fill="#647CCF"/>
</g>
<path d="M7 30.2396L28.7441 20.8682L50.4883 54.6572L35.8963 46.9875V108.402L20.9882 99.6747L20.2408 38.168L7 30.2396Z" fill="#042170"/>
<path d="M71.1869 83.8411L70.9051 124.874L67.5303 126.714V83.1914L71.1869 83.8411Z" fill="#021E6A"/>
<path d="M62.459 64.391L66.7825 61.959L81.6274 85.7269L77.8673 88.3313" fill="#021E6A"/>
<path opacity="0.5" d="M71.1869 83.8411L70.9051 124.874L67.5303 126.714V83.1914L71.1869 83.8411Z" fill="#647CCF"/>
<path opacity="0.5" d="M62.459 64.391L66.7825 61.959L81.6274 85.7269L77.8673 88.3313" fill="#647CCF"/>
<path d="M46.957 71.0197L62.4573 64.3447L77.9576 88.4288L67.557 82.9612V126.714L56.3975 120.142V76.6714L46.957 71.0197Z" fill="#042170"/>
<path d="M95.6832 112.755L95.5107 140.564L93.418 141.703V111.777L95.6832 112.755Z" fill="#021E6A"/>
<path d="M90.0029 100.106L92.6591 98.6226L102.669 114.704L100.398 116.256" fill="#021E6A"/>
<path opacity="0.5" d="M95.6832 112.755L95.5107 140.564L93.418 141.703V111.777L95.6832 112.755Z" fill="#647CCF"/>
<path opacity="0.5" d="M90.0029 100.106L92.6591 98.6226L102.669 114.704L100.398 116.256" fill="#647CCF"/>
<path d="M79.6025 104.584L90.0031 100.105L100.398 116.255L93.424 112.593V141.702L85.9383 137.528V108.373L79.6025 104.584Z" fill="#042170"/>
</g>
<defs>
<filter id="filter0_d" x="0" y="0" width="214" height="160.77" filterUnits="userSpaceOnUse" color-interpolation-filters="sRGB">
<feFlood flood-opacity="0" result="BackgroundImageFix"/>
<feColorMatrix in="SourceAlpha" type="matrix" values="0 0 0 0 0 0 0 0 0 0 0 0 0 0 0 0 0 0 127 0"/>
<feOffset dy="9"/>
<feGaussianBlur stdDeviation="3.5"/>
<feColorMatrix type="matrix" values="0 0 0 0 0 0 0 0 0 0 0 0 0 0 0 0 0 0 0.25 0"/>
<feBlend mode="normal" in2="BackgroundImageFix" result="effect1_dropShadow"/>
<feBlend mode="normal" in="SourceGraphic" in2="effect1_dropShadow" result="shape"/>
</filter>
<linearGradient id="paint0_linear" x1="92.7269" y1="113.467" x2="152.377" y2="72.5487" gradientUnits="userSpaceOnUse">
<stop stop-color="#F2C526"/>
<stop offset="0.98" stop-color="#DCA926"/>
</linearGradient>
</defs>
</svg>
