<svg width="41" height="41" viewBox="0 0 41 41" fill="none" xmlns="http://www.w3.org/2000/svg">
<path d="M20.4732 40.7805C15.0983 40.7759 9.9454 38.6363 6.14806 34.8324C2.35072 31.0285 0.219996 25.872 0.224617 20.4971C0.229238 15.1222 2.36883 9.96933 6.1727 6.17199C9.97658 2.37465 15.1331 0.243922 20.508 0.248543C25.8829 0.253164 31.0358 2.39276 34.8331 6.19663C38.6305 10.0005 40.7612 15.1571 40.7566 20.5319C40.7519 25.9068 38.6124 31.0597 34.8085 34.857C31.0046 38.6544 25.848 40.7851 20.4732 40.7805Z" fill="url(#paint0_radial)"/>
<path d="M20.5084 0V0.497813C24.273 0.503372 27.9598 1.57045 31.1454 3.57655C34.3311 5.58264 36.8864 8.44643 38.5181 11.8391C40.1497 15.2318 40.7916 19.0158 40.3699 22.7568C39.9483 26.4978 38.4802 30.044 36.1343 32.9884C33.7884 35.9327 30.6597 38.1559 27.1074 39.4025C23.5552 40.6492 19.7234 40.8688 16.0519 40.0363C12.3805 39.2037 9.01826 37.3527 6.35124 34.6956C3.68423 32.0386 1.82055 28.6834 0.974178 25.0151C0.381256 22.4517 0.299509 19.7966 0.733614 17.2016C1.16772 14.6065 2.10916 12.1226 3.50408 9.8917C4.89901 7.66083 6.72005 5.72686 8.86305 4.20039C11.0061 2.67391 13.429 1.5849 15.9932 0.995626C17.4746 0.659367 18.9893 0.49236 20.5084 0.497813V0ZM20.5084 0C18.9503 0.00226033 17.3973 0.179261 15.8787 0.527682C10.7785 1.7078 6.32304 4.79435 3.42582 9.15448C0.528602 13.5146 -0.590815 18.8179 0.297098 23.977C1.18501 29.1361 4.01297 33.76 8.20113 36.9007C12.3893 40.0414 17.6203 41.4608 22.8215 40.868C28.0228 40.2752 32.8002 37.715 36.1742 33.7124C39.5482 29.7098 41.263 24.568 40.9672 19.3415C40.6714 14.1149 38.3873 9.19953 34.5832 5.60321C30.7791 2.00689 25.7433 0.00213244 20.5084 0V0Z" fill="#5C960B"/>
<g style="mix-blend-mode:multiply" opacity="0.8">
<path style="mix-blend-mode:multiply" opacity="0.8" d="M30.6284 3.44043C34.9941 6.27538 38.0716 10.7115 39.1983 15.7935C40.325 20.8754 39.4107 26.1966 36.6523 30.611C33.8938 35.0254 29.512 38.1798 24.4505 39.3949C19.3889 40.61 14.0526 39.7886 9.59082 37.1076C11.8017 38.5779 14.285 39.59 16.8939 40.0838C19.5027 40.5777 22.1841 40.5433 24.7795 39.9828C27.3748 39.4223 29.8314 38.347 32.0039 36.8205C34.1764 35.294 36.0207 33.3473 37.4278 31.0956C38.8348 28.8439 39.776 26.3328 40.1956 23.711C40.6153 21.0892 40.5049 18.4099 39.8709 15.8315C39.237 13.2531 38.0924 10.828 36.5049 8.69968C34.9174 6.57135 32.9192 4.78301 30.6284 3.44043Z" fill="url(#paint1_linear)"/>
</g>
<g style="mix-blend-mode:screen">
<path style="mix-blend-mode:screen" d="M16.5408 25.1792C21.9819 17.7668 29.5088 10.2797 38.0364 12.6443C36.9381 10.2001 35.341 8.0125 33.3475 6.22184C31.354 4.43118 29.0083 3.07701 26.4607 2.24622C23.9131 1.41542 21.22 1.12635 18.5542 1.39755C15.8883 1.66874 13.3086 2.49422 10.9805 3.82101C8.65247 5.14781 6.62746 6.94661 5.03544 9.10202C3.44342 11.2574 2.31955 13.7218 1.73594 16.3371C1.15233 18.9524 1.12187 21.6608 1.64651 24.2886C2.17115 26.9163 3.23931 29.4054 4.78245 31.596C7.94356 31.6558 12.5533 30.6104 16.5408 25.1792Z" fill="url(#paint2_linear)"/>
</g>
<g style="mix-blend-mode:screen">
<path style="mix-blend-mode:screen" d="M3.29874 25.8011C2.45772 22.1713 2.69013 18.3753 3.96767 14.8752C5.24521 11.3751 7.51277 8.32194 10.4943 6.08739C13.4758 3.85283 17.0427 2.53328 20.7606 2.28939C24.4786 2.0455 28.1873 2.88779 31.4351 4.71372C29.2975 3.2288 26.8805 2.19351 24.3308 1.67064C21.7811 1.14777 19.1517 1.1482 16.6022 1.67192C14.0526 2.19563 11.636 3.23172 9.49883 4.71735C7.36167 6.20297 5.54852 8.10719 4.16932 10.3145C2.79012 12.5218 1.87361 14.9863 1.47535 17.5584C1.0771 20.1306 1.20541 22.7568 1.8525 25.2779C2.49959 27.799 3.65197 30.1623 5.23978 32.2247C6.82758 34.2871 8.81772 36.0055 11.0895 37.2757C7.14768 34.561 4.36761 30.4664 3.29874 25.8011Z" fill="url(#paint3_linear)"/>
</g>
<path d="M32.6058 14.4171L28.1055 9.92188L17.3229 20.7045L12.7629 16.1396L8.2627 20.6448L17.3179 29.7L17.3229 29.69L17.3378 29.7L32.6058 14.4171Z" fill="white"/>
<defs>
<radialGradient id="paint0_radial" cx="0" cy="0" r="1" gradientUnits="userSpaceOnUse" gradientTransform="translate(23.7397 34.6897) rotate(-13) scale(20.9155)">
<stop stop-color="#1ABA1B"/>
<stop offset="1" stop-color="#22AC00"/>
</radialGradient>
<linearGradient id="paint1_linear" x1="18.3056" y1="13.6261" x2="37.8158" y2="50.909" gradientUnits="userSpaceOnUse">
<stop stop-color="white"/>
<stop offset="1" stop-color="#FBAE17"/>
</linearGradient>
<linearGradient id="paint2_linear" x1="10.769" y1="2.51104" x2="23.9079" y2="26.847" gradientUnits="userSpaceOnUse">
<stop stop-color="#FFFBD4"/>
<stop offset="1"/>
</linearGradient>
<linearGradient id="paint3_linear" x1="6.60924" y1="-0.192267" x2="28.7991" y2="35.2867" gradientUnits="userSpaceOnUse">
<stop stop-color="white"/>
<stop offset="1"/>
</linearGradient>
</defs>
</svg>
