<svg width="314" height="246" viewBox="0 0 314 246" fill="none" xmlns="http://www.w3.org/2000/svg">
<g filter="url(#filter0_d)">
<path d="M9.26572 156.196L134.534 229.198C136.393 230.281 138.505 230.845 140.651 230.833C142.798 230.821 144.903 230.232 146.75 229.128C174.555 212.517 287.951 145.767 306.491 134.331C307.308 133.827 306.938 132.464 306.766 131.726C306.422 130.224 303.471 128.096 301.458 127.115C298.507 125.674 295.72 123.815 292.898 122.131L283.348 116.469L272.251 109.852L260.043 102.576L247.138 94.8993L234.036 87.0842L221.132 79.408L208.924 72.1052L197.74 65.471L188.096 59.7486L180.414 55.2071L177.308 53.3836C175.836 52.5224 174.164 52.0725 172.463 52.0802C170.762 52.0878 169.094 52.5527 167.63 53.427L9.22271 148.277C8.54158 148.686 7.9782 149.268 7.58836 149.965C7.19851 150.661 6.99572 151.449 7.00007 152.249C7.00441 153.049 7.21575 153.834 7.61314 154.526C8.01053 155.219 8.58019 155.794 9.26572 156.196Z" fill="#FFD15B"/>
<path d="M81.7717 31.4752C81.7717 31.4752 69.9167 34.8444 73.4095 56.5531L99.3906 39.794C99.3906 39.794 88.8777 29.4085 81.7717 31.4752Z" fill="#0A297C"/>
<path opacity="0.39" d="M81.7717 31.4752C81.7717 31.4752 69.9167 34.8444 73.4095 56.5531L99.3906 39.794C99.3906 39.794 88.8777 29.4085 81.7717 31.4752Z" fill="#06489E"/>
<path d="M172.628 125.457C135.566 105.181 148.703 73.9203 148.875 43.3371C148.918 33.5595 148.737 23.3651 146.105 13.8133C145.141 10.3399 143.851 6.69281 141.485 3.92278C140.16 2.36844 138.25 0.562277 136.203 0.0933698C133.914 -0.427639 131.755 1.35247 129.923 2.44659L123.548 6.25864L106.729 16.3575L93.0847 24.5113L90.6759 25.9528L80.6104 31.9704C82.5202 30.8242 86.6841 34.697 87.7078 35.904C90.065 38.6741 91.3641 42.3298 92.3276 45.7945C94.9601 55.2769 95.1408 65.506 95.0978 75.3183C94.9601 105.928 77.8918 144.708 114.997 164.958C135.644 176.246 167.277 195.524 167.277 195.524L229.003 158.497C222.448 154.494 190.428 135.182 172.628 125.457Z" fill="#0A297C"/>
<path d="M160.438 70.5598L156.661 67.7029C156.655 67.5805 156.62 67.4613 156.558 67.3555C156.497 67.2497 156.411 67.1604 156.308 67.0951C152.701 64.5595 149.099 62.0123 145.503 59.4536C145.39 59.3657 145.257 59.3076 145.116 59.2846C144.975 59.2616 144.83 59.2743 144.696 59.3217C144.561 59.3691 144.44 59.4496 144.343 59.556C144.247 59.6624 144.178 59.7914 144.144 59.9312C143.765 60.5911 144.247 61.2771 144.858 61.7895C145.469 62.3018 146.226 62.927 146.914 63.5262C146.825 63.5919 146.749 63.6745 146.69 63.7693C146.14 64.6376 145.219 65.8707 145.211 66.9561C145.202 68.0416 146.071 68.5799 146.742 69.1704V69.3267C146.604 70.664 147.189 71.0634 148.239 71.6973C148.34 71.7663 148.454 71.8127 148.574 71.8337C148.694 71.8547 148.818 71.8496 148.936 71.8189C149.664 72.2975 150.432 72.7101 151.233 73.0519L154.416 74.6844C155.224 75.1012 155.809 74.12 155.483 73.4601C156.119 73.5122 156.386 72.8088 156.222 72.2617C156.304 72.1817 156.366 72.0836 156.403 71.9752V71.9318L157.504 72.8001C158.365 73.5035 159.449 72.1054 158.562 71.4021L157.78 70.7769L159.388 71.9925C159.577 72.133 159.812 72.1923 160.044 72.1573C160.275 72.1223 160.484 71.9959 160.623 71.8059C160.762 71.6159 160.821 71.3778 160.786 71.1441C160.751 70.9105 160.626 70.7003 160.438 70.5598Z" fill="#FEC877"/>
<path d="M185.447 182.221L186.806 181.352V165.904L180.087 165.661C180.087 165.661 179.958 172.252 178.366 173.754C176.775 175.256 172.852 174.18 172.465 174.31C172.077 174.44 169.436 173.667 168.249 174.9C167.062 176.133 172.275 179.694 175.046 180.345C176.943 180.731 178.889 180.805 180.81 180.562C180.81 180.562 181.412 176.611 182.375 177.002C183.339 177.393 183.408 181.569 183.408 181.569L185.447 182.221Z" fill="#FF6753"/>
<path d="M190.505 100.439C191.451 105.734 192.008 111.092 192.174 116.469C192.286 122.548 190.161 171.123 190.161 171.123C190.161 171.123 186.169 175.847 176.448 172.999C175.037 172.59 174.59 125.595 174.59 125.595L177.954 104.043" fill="#A03DFF"/>
<path d="M186.032 75.9087C185.498 75.9087 167.612 75.4398 155.525 64.5073C155.525 64.5073 149.735 70.2384 152.084 74.6236C152.084 74.6236 169.221 91.2872 182.289 87.8746" fill="#FC9C54"/>
<path d="M171.862 70.7505C171.838 70.7129 171.805 70.682 171.766 70.6606C171.727 70.6391 171.683 70.6279 171.639 70.6279C171.594 70.6279 171.55 70.6391 171.511 70.6606C171.472 70.682 171.439 70.7129 171.415 70.7505C169.692 73.3817 169.074 76.5949 169.694 79.6858C169.763 80.0158 170.262 79.8769 170.202 79.5469C169.652 76.7489 170.165 73.8446 171.639 71.4105C173.111 74.1869 173.868 77.2923 173.841 80.4413C173.841 80.5115 173.869 80.5789 173.918 80.6286C173.967 80.6782 174.034 80.7061 174.103 80.7061C174.173 80.7061 174.24 80.6782 174.289 80.6286C174.338 80.5789 174.366 80.5115 174.366 80.4413C174.388 77.0453 173.525 73.7032 171.862 70.7505Z" fill="#42A200"/>
<path d="M167.044 194.143L168.403 193.275V177.827L161.685 177.583C161.685 177.583 161.555 184.174 159.964 185.676C158.372 187.179 154.449 186.102 154.062 186.232C153.675 186.362 151.034 185.59 149.847 186.823C148.66 188.056 153.873 191.616 156.643 192.267C158.54 192.654 160.487 192.727 162.407 192.484C162.407 192.484 163.009 188.533 163.973 188.924C164.936 189.315 165.005 193.492 165.005 193.492L167.044 194.143Z" fill="#FF6753"/>
<path d="M169.453 102.688C169.453 102.688 163.259 125.769 160.738 146.427C160.136 151.385 155.052 180.961 155.052 180.961C155.052 180.961 163.431 184.053 170.881 181.63C170.881 181.63 179.742 143.891 180.121 143.153C180.499 142.415 186.478 117.971 187.167 100.431" fill="#A03DFF"/>
<path d="M188.388 73.321L184.835 71.9751C183.932 72.0359 175.888 74.693 172.232 80.0681C171.718 81.7499 171.33 83.4683 171.07 85.2087C170.606 87.5272 170.21 89.8544 169.918 92.1555C169.584 94.7055 169.44 97.2773 169.487 99.8491C169.487 100.952 169.548 101.508 169.659 102.602C170.053 103.003 170.513 103.332 171.019 103.574C181.583 108.159 189.945 102.593 190.367 101.733C190.788 100.874 192.182 88.3 192.948 80.8149C193.108 79.2339 192.748 77.6436 191.924 76.2894C191.1 74.9352 189.857 73.8921 188.388 73.321Z" fill="#FFAF68"/>
<path d="M179.76 59.6274C179.76 59.6274 176.439 71.7842 180.853 73.4602C185.266 75.1361 190.944 70.3602 191.512 67.8506C192.08 65.3411 186.376 55.9716 179.76 59.6274Z" fill="#FEC877"/>
<path d="M201.551 55.9975C200.975 54.7771 199.985 53.8051 198.761 53.2573C197.536 52.7094 196.158 52.6218 194.875 53.0104C192.441 53.8093 190.969 55.9194 190.255 58.2726C188.062 56.3362 184.792 55.355 180.646 56.6401C180.646 56.6401 176.577 58.3768 177.316 60.9819C178.056 63.5869 181.145 63.5869 183.734 64.0992C186.324 64.6116 184.225 66.904 184.354 69.483C184.483 72.062 185.636 72.4875 186.711 72.7132C187.786 72.939 192.673 71.8449 193.361 66.053C193.403 65.6986 193.42 65.3417 193.413 64.9849C194.084 65.0555 194.76 65.0758 195.434 65.0457C196.955 65.0954 198.455 64.6775 199.736 63.8474C200.858 62.9271 201.645 61.6567 201.973 60.2358C202.302 58.8148 202.153 57.324 201.551 55.9975Z" fill="#653200"/>
<path d="M175.51 72.9566C175.847 72.4781 175.991 71.8885 175.914 71.3067C175.89 71.1327 175.814 70.9701 175.697 70.8404C175.579 70.7108 175.425 70.6203 175.256 70.5807C175.086 70.5412 174.908 70.5546 174.746 70.6191C174.584 70.6836 174.446 70.7962 174.348 70.942L173.97 71.463C173.91 70.7944 173.841 70.1258 173.746 69.4571C173.738 69.2268 173.64 69.0092 173.473 68.852C173.306 68.6949 173.084 68.6111 172.856 68.6192C172.628 68.6272 172.412 68.7265 172.256 68.895C172.101 69.0636 172.018 69.2876 172.026 69.5179C172.026 69.7263 171.974 69.9434 171.957 70.1518C171.885 70.3749 171.836 70.6048 171.811 70.8378C170.873 70.9594 169.754 71.3067 169.591 72.3922C169.591 72.3922 169.591 72.4443 169.591 72.4616C168.868 72.4616 168.163 72.7482 168.137 73.6165C168.124 73.7813 168.124 73.9467 168.137 74.1115C167.406 74.3286 166.872 74.702 166.976 75.6658C167.132 76.7878 167.421 77.8869 167.836 78.9395C167.896 79.0703 167.987 79.1839 168.101 79.2703C168.215 79.3568 168.349 79.4131 168.49 79.4345C168.593 79.9034 168.713 80.3636 168.843 80.8238C168.938 81.0214 169.081 81.1914 169.259 81.318C169.437 81.4446 169.644 81.5237 169.86 81.548C170.077 81.5723 170.295 81.5409 170.497 81.4568C170.698 81.3727 170.875 81.2386 171.01 81.067C171.098 81.061 171.185 81.0434 171.269 81.0148C171.372 81.0863 171.489 81.1342 171.612 81.1552C171.736 81.1762 171.862 81.1698 171.983 81.1364C172.089 81.2128 172.211 81.2637 172.34 81.2852C172.469 81.3067 172.601 81.2983 172.727 81.2607C172.852 81.223 172.967 81.1571 173.063 81.0678C173.159 80.9786 173.234 80.8684 173.282 80.7457C173.382 80.6551 173.46 80.5418 173.51 80.4151C173.559 80.2884 173.578 80.1518 173.566 80.0162C173.566 79.8165 173.566 79.6168 173.566 79.4258C174.254 77.2723 174.902 75.1159 175.51 72.9566Z" fill="#FEC877"/>
<path d="M174.039 77.4546C173.764 77.5241 169.892 73.9378 166.959 75.1709C166.959 75.1709 155.775 94.2051 166.21 99.2415C171.372 101.742 175.39 94.0314 175.39 94.0314L172.422 88.1092L174.039 77.4546Z" fill="#FFAF68"/>
<path d="M107.994 54.8775C110.588 54.8775 112.691 51.9656 112.691 48.3736C112.691 44.7815 110.588 41.8696 107.994 41.8696C105.4 41.8696 103.297 44.7815 103.297 48.3736C103.297 51.9656 105.4 54.8775 107.994 54.8775Z" fill="white"/>
<path d="M115.65 41.6871L140.96 26.7081C141.206 26.563 141.386 26.3251 141.458 26.0466C141.531 25.7681 141.491 25.4719 141.347 25.2232C141.203 24.9745 140.968 24.7936 140.692 24.7203C140.416 24.647 140.122 24.6874 139.876 24.8325L114.566 39.8115C114.444 39.8833 114.337 39.9787 114.252 40.0922C114.166 40.2057 114.104 40.3351 114.068 40.473C114.032 40.6109 114.023 40.7545 114.042 40.8958C114.061 41.0371 114.108 41.1732 114.179 41.2963C114.25 41.4195 114.344 41.5273 114.457 41.6136C114.569 41.6999 114.698 41.763 114.834 41.7992C114.971 41.8355 115.113 41.8443 115.253 41.8251C115.393 41.8058 115.528 41.7589 115.65 41.6871Z" fill="#F2F2F2"/>
<path d="M117.732 46.6539L133.76 37.38C134.006 37.2349 134.185 36.9969 134.258 36.7185C134.331 36.44 134.291 36.1438 134.147 35.8951C134.003 35.6464 133.767 35.4655 133.492 35.3922C133.216 35.3189 132.922 35.3593 132.676 35.5043L116.614 44.7783C116.368 44.928 116.19 45.1704 116.121 45.4521C116.052 45.7338 116.096 46.0318 116.244 46.2805C116.392 46.5293 116.633 46.7083 116.912 46.7784C117.191 46.8484 117.486 46.8036 117.732 46.6539Z" fill="#F2F2F2"/>
<path d="M111.923 77.7286C112.635 74.2092 111.152 70.9315 108.61 70.4077C106.068 69.8839 103.431 72.3123 102.719 75.8317C102.007 79.3511 103.49 82.6288 106.032 83.1526C108.574 83.6764 111.211 81.248 111.923 77.7286Z" fill="white"/>
<path d="M114.954 71.793L140.221 56.8053C140.467 56.6602 140.646 56.4222 140.719 56.1438C140.791 55.8653 140.751 55.5691 140.608 55.3204C140.464 55.0717 140.228 54.8908 139.952 54.8175C139.676 54.7442 139.383 54.7845 139.137 54.9296L113.87 69.9173C113.748 69.9892 113.641 70.0846 113.555 70.1981C113.47 70.3116 113.407 70.4409 113.371 70.5788C113.335 70.7167 113.327 70.8604 113.346 71.0017C113.365 71.1429 113.411 71.279 113.482 71.4022C113.554 71.5253 113.648 71.6331 113.761 71.7194C113.873 71.8057 114.001 71.8688 114.138 71.9051C114.274 71.9414 114.417 71.9502 114.557 71.9309C114.697 71.9117 114.832 71.8648 114.954 71.793Z" fill="#F2F2F2"/>
<path d="M117.001 76.7599L133.029 67.4859C133.275 67.3408 133.454 67.1029 133.527 66.8244C133.6 66.546 133.56 66.2498 133.416 66.0011C133.272 65.7523 133.036 65.5714 132.761 65.4982C132.485 65.4249 132.191 65.4652 131.945 65.6103L115.917 74.8843C115.671 75.0293 115.492 75.2673 115.419 75.5458C115.347 75.8242 115.387 76.1204 115.53 76.3691C115.674 76.6179 115.91 76.7988 116.186 76.872C116.462 76.9453 116.755 76.905 117.001 76.7599Z" fill="#F2F2F2"/>
<path d="M108.763 105.072C109.765 101.626 108.559 98.234 106.07 97.4969C103.58 96.7598 100.75 98.9564 99.7485 102.403C98.7467 105.85 99.9525 109.242 102.442 109.979C104.931 110.716 107.761 108.519 108.763 105.072Z" fill="white"/>
<path d="M111.873 99.5713L137.14 84.5836C137.262 84.5117 137.369 84.4163 137.455 84.3028C137.54 84.1893 137.603 84.06 137.639 83.9221C137.675 83.7842 137.683 83.6405 137.664 83.4992C137.645 83.358 137.599 83.2219 137.528 83.0987C137.456 82.9756 137.362 82.8678 137.249 82.7815C137.137 82.6952 137.009 82.6321 136.872 82.5958C136.736 82.5595 136.593 82.5508 136.453 82.57C136.313 82.5892 136.179 82.6361 136.057 82.708L110.79 97.6956C110.667 97.7675 110.561 97.8629 110.475 97.9764C110.39 98.0899 110.327 98.2193 110.291 98.3571C110.255 98.495 110.247 98.6387 110.266 98.78C110.285 98.9212 110.331 99.0574 110.402 99.1805C110.474 99.3037 110.568 99.4115 110.681 99.4977C110.793 99.584 110.921 99.6471 111.058 99.6834C111.194 99.7197 111.337 99.7285 111.477 99.7092C111.617 99.69 111.751 99.6431 111.873 99.5713Z" fill="#F2F2F2"/>
<path d="M112.407 105.103L128.434 95.8287C128.556 95.7569 128.663 95.6615 128.748 95.548C128.834 95.4345 128.896 95.3051 128.932 95.1672C128.968 95.0293 128.977 94.8856 128.958 94.7444C128.939 94.6031 128.892 94.467 128.821 94.3438C128.75 94.2207 128.656 94.1129 128.543 94.0266C128.431 93.9403 128.302 93.8772 128.166 93.8409C128.029 93.8046 127.887 93.7959 127.747 93.8151C127.607 93.8344 127.472 93.8812 127.35 93.9531L111.323 103.227C111.076 103.372 110.897 103.61 110.824 103.889C110.752 104.167 110.792 104.463 110.936 104.712C111.079 104.961 111.315 105.142 111.591 105.215C111.867 105.288 112.16 105.248 112.407 105.103Z" fill="#F2F2F2"/>
<path d="M107.236 135.425C109.831 135.425 111.934 132.513 111.934 128.921C111.934 125.329 109.831 122.417 107.236 122.417C104.642 122.417 102.539 125.329 102.539 128.921C102.539 132.513 104.642 135.425 107.236 135.425Z" fill="white"/>
<path d="M114.618 123.564L139.885 108.576C140.131 108.431 140.31 108.193 140.383 107.915C140.455 107.636 140.415 107.34 140.272 107.091C140.201 106.968 140.106 106.86 139.994 106.774C139.881 106.688 139.753 106.625 139.616 106.588C139.34 106.515 139.047 106.556 138.801 106.701L113.534 121.68C113.412 121.751 113.305 121.847 113.219 121.96C113.134 122.074 113.071 122.203 113.035 122.341C112.999 122.479 112.991 122.623 113.01 122.764C113.029 122.905 113.075 123.041 113.147 123.165C113.218 123.288 113.312 123.395 113.425 123.482C113.537 123.568 113.665 123.631 113.802 123.667C113.939 123.704 114.081 123.712 114.221 123.693C114.361 123.674 114.496 123.627 114.618 123.555V123.564Z" fill="#F2F2F2"/>
<path d="M116.872 128.201L132.899 118.927C133.145 118.782 133.325 118.544 133.397 118.265C133.47 117.987 133.43 117.691 133.286 117.442C133.215 117.319 133.12 117.211 133.008 117.125C132.895 117.038 132.767 116.975 132.631 116.939C132.355 116.866 132.061 116.906 131.815 117.051L115.788 126.325C115.541 126.47 115.362 126.708 115.289 126.987C115.217 127.265 115.257 127.561 115.4 127.81C115.544 128.059 115.78 128.24 116.056 128.313C116.332 128.386 116.625 128.346 116.872 128.201Z" fill="#F2F2F2"/>
<path d="M105.378 48.886L106.393 46.8974C106.393 46.8974 108.681 49.4417 108.681 49.1899C108.681 48.9381 110.849 39.1865 110.849 39.1865L112.57 40.628L109.74 52.2986L105.378 48.886Z" fill="#4EB300"/>
<path d="M217.019 107.074C216.654 107.072 216.294 106.992 215.961 106.839L215.798 107.925L233.004 108.368V107.074H217.019Z" fill="#EF8A3F"/>
<path d="M215.953 106.917L215.798 107.959L225.27 113.465V112.128C222.104 110.547 219.007 108.75 215.953 106.917Z" fill="#EF8A3F"/>
<path d="M225.554 31.9443C224.991 32.0383 224.414 31.9534 223.902 31.7012L212.993 116.669C213.656 117.077 214.344 117.442 215.015 117.824L226.052 31.8575L225.554 31.9443Z" fill="#EF8A3F"/>
<path d="M228.066 31.8403C227.668 31.8843 227.267 31.8843 226.87 31.8403C226.551 31.8403 226.225 31.8403 225.906 31.8924L233.279 119.022C233.839 118.746 234.413 118.499 235 118.284L235.292 118.137H235.344L228.066 31.8403Z" fill="#EF8A3F"/>
<path d="M226.87 31.8486C226.429 31.8509 225.989 31.8828 225.553 31.9442C225.381 31.9578 225.209 31.9578 225.037 31.9442L224.314 123.989C224.684 123.856 225.081 123.823 225.467 123.893H226.13H226.491L227.214 31.8486H226.87Z" fill="#EF8A3F"/>
<path d="M214.946 33.3164V52.3506C214.946 52.3506 236.643 53.0018 236.643 52.3506V33.3164" fill="#FF6753"/>
<path d="M225.811 38.3527C231.803 38.3527 236.66 36.0823 236.66 33.2816C236.66 30.4809 231.803 28.2104 225.811 28.2104C219.82 28.2104 214.963 30.4809 214.963 33.2816C214.963 36.0823 219.82 38.3527 225.811 38.3527Z" fill="#D64338"/>
<path d="M225.811 57.7082C231.803 57.7082 236.66 55.4378 236.66 52.6371C236.66 49.8363 231.803 47.5659 225.811 47.5659C219.82 47.5659 214.963 49.8363 214.963 52.6371C214.963 55.4378 219.82 57.7082 225.811 57.7082Z" fill="#FF6753"/>
<path d="M173.11 78.2617C170.655 82.2989 168.968 86.7636 168.137 91.4259C168.043 91.9729 168.869 92.2074 168.998 91.6603C169.811 87.0717 171.468 82.6774 173.884 78.7046C174.142 78.1923 173.402 77.7581 173.11 78.2617Z" fill="#F04900"/>
<path d="M175.191 94.7607C174.331 96.454 173.23 98.2341 171.509 99.1024C170.494 99.5822 169.36 99.7459 168.253 99.5727C167.145 99.3994 166.113 98.8972 165.289 98.1299C161.624 94.943 162.175 89.4464 162.906 85.1654C163.001 84.6184 162.175 84.3839 162.046 84.931C161.186 89.7416 160.747 95.9937 165.246 99.2153C166.111 99.8604 167.122 100.278 168.187 100.429C169.252 100.581 170.338 100.462 171.346 100.084C173.497 99.2153 174.864 97.1486 175.897 95.1428C176.189 94.7086 175.441 94.2744 175.191 94.7607Z" fill="#F04900"/>
<path d="M184.569 117.416C184.018 128.453 180.792 139.029 178.056 149.658C175.32 160.286 172.989 170.871 170.993 181.595L171.922 181.335C173.947 170.504 176.338 159.751 179.097 149.076C181.807 138.656 184.887 128.235 185.429 117.416C185.455 116.86 184.594 116.86 184.569 117.416Z" fill="#653200"/>
<path d="M242.39 103.609V132.881L264.843 145.967L283.142 134.991V107.794" fill="#FFAF68"/>
<path d="M264.844 145.967V117.086L283.142 108.906V134.991L264.844 145.967Z" fill="#F49E5D"/>
<path d="M283.142 106.275V108.906L281.404 109.444L280.251 107.656" fill="#EA8E50"/>
<path d="M260.877 95.186L242.381 106.24L265.506 119.717C266.194 120.116 283.133 108.906 283.133 108.906L260.877 95.186Z" fill="#EA8E50"/>
<path d="M242.39 106.24V103.609L245.71 101.942L245.306 106.622" fill="#EA8E50"/>
<path d="M260.877 92.5552L242.381 103.609L265.506 117.086C266.194 117.485 283.133 106.275 283.133 106.275L260.877 92.5552Z" fill="#FFB883"/>
<path d="M245.615 111.867V117.92L262.443 127.61V121.671L245.615 111.867Z" fill="#EA8E50"/>
<path d="M245.392 120.915V126.976L262.219 136.667V130.719L245.392 120.915Z" fill="#EA8E50"/>
<path d="M253.376 120.509C253.792 120.469 254.084 119.953 254.027 119.356C253.971 118.76 253.588 118.308 253.172 118.348C252.755 118.388 252.464 118.905 252.52 119.501C252.577 120.098 252.96 120.549 253.376 120.509Z" fill="#FFB883"/>
<path d="M252.678 129.246C253.094 129.206 253.386 128.69 253.329 128.093C253.273 127.496 252.89 127.045 252.473 127.085C252.057 127.125 251.765 127.641 251.822 128.238C251.878 128.835 252.261 129.286 252.678 129.246Z" fill="#FFB883"/>
<path d="M58.8882 124.536C48.3065 124.536 39.7207 127.367 39.7207 130.858H78.0556C78.0556 127.367 69.4699 124.536 58.8882 124.536Z" fill="#06489E"/>
<path d="M39.7809 131.353L39.7207 130.867C39.7223 131.031 39.7425 131.194 39.7809 131.353Z" fill="#06489E"/>
<path d="M78.055 130.867L77.9775 131.422C78.0273 131.241 78.0533 131.055 78.055 130.867Z" fill="#06489E"/>
<path d="M58.8882 137.188C68.9107 137.188 77.1265 134.653 77.9782 131.414L78.0556 130.858H39.7207L39.7809 131.344C40.538 134.618 48.7969 137.188 58.8882 137.188Z" fill="#06489E"/>
<path d="M66.2085 98.208H61.8984V143.11H66.2085V98.208Z" fill="#25B000"/>
<path d="M64.0578 99.1285C65.2504 99.1285 66.2171 98.7164 66.2171 98.208C66.2171 97.6997 65.2504 97.2876 64.0578 97.2876C62.8652 97.2876 61.8984 97.6997 61.8984 98.208C61.8984 98.7164 62.8652 99.1285 64.0578 99.1285Z" fill="#25B000"/>
<path d="M75.7972 106.782L71.5742 105.912L62.6747 149.907L66.8977 150.777L75.7972 106.782Z" fill="#FF8F02"/>
<path d="M75.7966 106.783C75.8974 106.285 75.0318 105.686 73.8634 105.445C72.6949 105.204 71.666 105.413 71.5652 105.911C71.4645 106.409 72.33 107.008 73.4985 107.249C74.667 107.489 75.6959 107.281 75.7966 106.783Z" fill="#FF8F02"/>
<path d="M53.6832 131.856L49.7688 134.123C49.691 134.15 49.6062 134.149 49.529 134.12C49.4519 134.091 49.3873 134.035 49.3464 133.963C49.3055 133.891 49.291 133.807 49.3053 133.725C49.3196 133.643 49.3618 133.569 49.4247 133.515L53.4251 131.231C53.4623 131.209 53.5031 131.195 53.5455 131.188L52.754 126.846L48.7967 129.13C48.7189 129.157 48.6341 129.156 48.5569 129.127C48.4797 129.098 48.4151 129.042 48.3742 128.97C48.3334 128.898 48.3188 128.814 48.3331 128.732C48.3474 128.65 48.3897 128.576 48.4525 128.522L52.4787 126.195C52.5238 126.17 52.5737 126.155 52.625 126.151L51.8937 122.174L48.0482 124.415C47.9704 124.442 47.8856 124.441 47.8084 124.412C47.7313 124.383 47.6667 124.327 47.6258 124.255C47.5849 124.183 47.5704 124.099 47.5847 124.017C47.599 123.935 47.6412 123.861 47.7041 123.807L51.7303 121.48H51.8077L50.9904 117.051L47.1105 119.291C47.0327 119.319 46.9479 119.318 46.8707 119.289C46.7936 119.26 46.7289 119.204 46.6881 119.132C46.6472 119.06 46.6326 118.975 46.6469 118.893C46.6613 118.812 46.7035 118.737 46.7664 118.684L50.7926 116.356H50.8528L50.0527 112.015L46.1125 114.29C46.0347 114.317 45.9499 114.316 45.8728 114.287C45.7956 114.258 45.731 114.202 45.6901 114.13C45.6492 114.058 45.6347 113.974 45.649 113.892C45.6633 113.81 45.7055 113.736 45.7684 113.682L49.7688 111.259C49.806 111.237 49.8468 111.223 49.8892 111.216L49.201 107.456L45.2608 109.731C45.1831 109.758 45.0982 109.757 45.0211 109.728C44.9439 109.699 44.8793 109.644 44.8384 109.571C44.7976 109.499 44.783 109.415 44.7973 109.333C44.8116 109.251 44.8539 109.177 44.9167 109.123L48.9085 106.831C48.9483 106.808 48.9922 106.793 49.0375 106.787L48.3493 103.036L44.4177 105.302C44.34 105.33 44.2551 105.329 44.178 105.3C44.1008 105.27 44.0362 105.215 43.9953 105.143C43.9545 105.071 43.9399 104.986 43.9542 104.904C43.9685 104.822 44.0108 104.748 44.0736 104.694L48.0998 102.367C48.1397 102.36 48.1804 102.36 48.2203 102.367L47.489 98.2339L43.5919 100.483C43.5141 100.51 43.4292 100.509 43.3521 100.48C43.2749 100.451 43.2103 100.396 43.1694 100.323C43.1286 100.251 43.114 100.167 43.1283 100.085C43.1426 100.003 43.1849 99.9289 43.2477 99.8751L47.2739 97.548H47.3514L46.9986 95.6289L38.4473 100.978C38.4473 100.978 44.521 135.113 44.65 135.182C48.1945 137.049 54.6467 137.266 54.6467 137.266L53.6832 131.856Z" fill="#FFAF68"/>
<path d="M43.2556 99.8317C43.1928 99.8854 43.1505 99.9597 43.1362 100.042C43.1219 100.123 43.1365 100.208 43.1773 100.28C43.2182 100.352 43.2828 100.408 43.36 100.437C43.4371 100.466 43.522 100.467 43.5997 100.44L47.4883 98.2339L47.3593 97.5132H47.2818L43.2556 99.8317Z" fill="#CA4300"/>
<path d="M44.1082 104.695C44.0453 104.748 44.0031 104.823 43.9888 104.905C43.9745 104.986 43.989 105.071 44.0299 105.143C44.0707 105.215 44.1354 105.271 44.2125 105.3C44.2897 105.329 44.3745 105.33 44.4523 105.303L48.3839 103.036L48.2548 102.324C48.215 102.317 48.1742 102.317 48.1344 102.324L44.1082 104.695Z" fill="#CA4300"/>
<path d="M44.9168 109.158C44.8539 109.211 44.8116 109.286 44.7973 109.368C44.783 109.449 44.7976 109.534 44.8385 109.606C44.8793 109.678 44.944 109.734 45.0211 109.763C45.0983 109.792 45.1831 109.793 45.2609 109.766L49.201 107.49L49.072 106.787C49.0266 106.793 48.9828 106.808 48.943 106.831L44.9168 109.158Z" fill="#CA4300"/>
<path d="M45.7429 113.621C45.6801 113.675 45.6378 113.749 45.6235 113.831C45.6092 113.913 45.6238 113.997 45.6646 114.069C45.7055 114.142 45.7701 114.197 45.8473 114.226C45.9244 114.255 46.0093 114.256 46.0871 114.229L50.0272 111.954L49.8982 111.251C49.855 111.245 49.8112 111.248 49.7691 111.259L45.7429 113.621Z" fill="#CA4300"/>
<path d="M46.7322 118.64C46.6693 118.694 46.6271 118.768 46.6128 118.85C46.5985 118.932 46.613 119.016 46.6539 119.089C46.6948 119.161 46.7594 119.216 46.8365 119.245C46.9137 119.274 46.9985 119.275 47.0763 119.248L50.9563 117.008L50.8186 116.278H50.7584L46.7322 118.64Z" fill="#CA4300"/>
<path d="M47.6609 123.807C47.598 123.86 47.5558 123.935 47.5415 124.017C47.5272 124.098 47.5417 124.183 47.5826 124.255C47.6235 124.327 47.6881 124.383 47.7652 124.412C47.8424 124.441 47.9272 124.442 48.005 124.415L51.9022 122.166L51.7731 121.445H51.6957L47.6609 123.807Z" fill="#CA4300"/>
<path d="M52.4781 126.195L48.4519 128.522C48.3891 128.576 48.3468 128.65 48.3325 128.732C48.3182 128.814 48.3327 128.898 48.3736 128.97C48.4145 129.042 48.4791 129.098 48.5563 129.127C48.6334 129.156 48.7183 129.157 48.796 129.13L52.7534 126.846L52.6244 126.151C52.5731 126.155 52.5231 126.17 52.4781 126.195Z" fill="#CA4300"/>
<path d="M49.3992 133.515C49.3363 133.569 49.2941 133.643 49.2798 133.725C49.2655 133.807 49.28 133.891 49.3209 133.963C49.3618 134.036 49.4264 134.091 49.5035 134.12C49.5807 134.149 49.6655 134.15 49.7433 134.123L53.6835 131.848L53.5544 131.145C53.512 131.151 53.4712 131.166 53.434 131.188L49.3992 133.515Z" fill="#CA4300"/>
<path d="M71.5684 105.91C71.5684 105.91 71.7834 107.048 73.4954 107.247C75.2074 107.447 75.7924 106.778 75.7924 106.778L75.2332 98.2339L71.5684 105.91Z" fill="#FFD8BD"/>
<path d="M75.2333 98.2339L73.5127 101.811C73.7555 102.08 74.0833 102.254 74.4396 102.305C74.796 102.355 75.1588 102.279 75.4656 102.089L75.2333 98.2339Z" fill="#653200"/>
<path d="M61.8984 97.9474C61.8984 97.9474 62.2942 99.0415 64.0148 98.9633C65.7354 98.8852 66.2085 98.095 66.2085 98.095L64.3159 89.7241L61.8984 97.9474Z" fill="#FFD8BD"/>
<path d="M64.3252 89.7676L63.1982 93.5709C63.4756 93.8017 63.8238 93.9279 64.1833 93.9279C64.5427 93.9279 64.891 93.8017 65.1683 93.5709L64.3252 89.7676Z" fill="#653200"/>
<path d="M58.8875 137.188C48.8048 137.188 40.5373 134.583 39.7803 131.353C40.2792 135.261 43.729 162.101 43.8581 162.258C43.8581 162.258 45.5787 169.83 58.8875 169.821C70.1832 169.821 73.4008 164.098 73.4008 164.098L77.9776 131.422C77.1259 134.653 68.91 137.188 58.8875 137.188Z" fill="#0A297C"/>
</g>
<defs>
<filter id="filter0_d" x="0" y="0" width="314" height="245.833" filterUnits="userSpaceOnUse" color-interpolation-filters="sRGB">
<feFlood flood-opacity="0" result="BackgroundImageFix"/>
<feColorMatrix in="SourceAlpha" type="matrix" values="0 0 0 0 0 0 0 0 0 0 0 0 0 0 0 0 0 0 127 0"/>
<feOffset dy="8"/>
<feGaussianBlur stdDeviation="3.5"/>
<feColorMatrix type="matrix" values="0 0 0 0 0 0 0 0 0 0 0 0 0 0 0 0 0 0 0.21 0"/>
<feBlend mode="normal" in2="BackgroundImageFix" result="effect1_dropShadow"/>
<feBlend mode="normal" in="SourceGraphic" in2="effect1_dropShadow" result="shape"/>
</filter>
</defs>
</svg>
